# Blender v2.79 (sub 0) OBJ File: 'test.blend'
# www.blender.org
mtllib test1.mtl
o Cube.015_Cube.016
v -0.500949 3.865659 0.341010
v -0.500949 3.965659 0.341010
v -0.500949 3.865659 -0.658990
v -0.500949 3.965659 -0.658990
v 0.499051 3.865659 0.341010
v 0.499051 3.965659 0.341010
v 0.499051 3.865659 -0.658990
v 0.499051 3.965659 -0.658990
vn -1.0000 0.0000 0.0000
vn 0.0000 0.0000 -1.0000
vn 1.0000 0.0000 0.0000
vn 0.0000 0.0000 1.0000
vn 0.0000 -1.0000 0.0000
vn 0.0000 1.0000 0.0000
usemtl Material_Light
s off
f 2//1 3//1 1//1
f 4//2 7//2 3//2
f 8//3 5//3 7//3
f 6//4 1//4 5//4
f 7//5 1//5 3//5
f 4//6 6//6 8//6
f 2//1 4//1 3//1
f 4//2 8//2 7//2
f 8//3 6//3 5//3
f 6//4 2//4 1//4
f 7//5 5//5 1//5
f 4//6 2//6 6//6
o Plane.006
v 2.000000 0.000000 2.000000
v 2.000000 4.000000 2.000000
v 2.000000 0.000000 -2.000000
v 2.000000 4.000000 -2.000000
vn -1.0000 0.0000 0.0000
usemtl Material_Green
s off
f 10//7 11//7 9//7
f 10//7 12//7 11//7
o Plane.005
v -2.000000 4.000000 -2.000000
v 2.000000 4.000000 -2.000000
v -2.000000 4.000000 2.000000
v 2.000000 4.000000 2.000000
vn 0.0000 -1.0000 0.0000
usemtl Material_White
s off
f 14//8 15//8 13//8
f 14//8 16//8 15//8
o Plane.004
v -2.000000 0.000000 -2.000000
v 2.000000 0.000000 -2.000000
v -2.000000 4.000000 -2.000000
v 2.000000 4.000000 -2.000000
vn 0.0000 -0.0000 1.0000
usemtl Material_White
s off
f 18//9 19//9 17//9
f 18//9 20//9 19//9
o Plane.003
v -2.000000 4.000000 2.000000
v -2.000000 0.000000 2.000000
v -2.000000 4.000000 -2.000000
v -2.000000 0.000000 -2.000000
vn 1.0000 -0.0000 0.0000
usemtl Material_Red
s off
f 22//10 23//10 21//10
f 22//10 24//10 23//10
o Cube.014_Cube.015
v -1.122306 -0.034341 0.139583
v -1.122306 1.965659 0.139583
v -1.464326 -0.034341 -0.800110
v -1.464326 1.965659 -0.800110
v -0.182613 -0.034341 -0.202438
v -0.182613 1.965659 -0.202438
v -0.524633 -0.034341 -1.142130
v -0.524633 1.965659 -1.142130
vn -0.9397 0.0000 0.3420
vn -0.3420 0.0000 -0.9397
vn 0.9397 0.0000 -0.3420
vn 0.3420 0.0000 0.9397
vn 0.0000 -1.0000 -0.0000
vn 0.0000 1.0000 -0.0000
usemtl Material_White
s off
f 26//11 27//11 25//11
f 28//12 31//12 27//12
f 32//13 29//13 31//13
f 30//14 25//14 29//14
f 31//15 25//15 27//15
f 28//16 30//16 32//16
f 26//11 28//11 27//11
f 28//12 32//12 31//12
f 32//13 30//13 29//13
f 30//14 26//14 25//14
f 31//15 29//15 25//15
f 28//16 26//16 30//16
o Cube.012_Cube.014
v 1.246658 -0.034341 1.387698
v 1.246658 0.965659 1.387698
v 0.340350 -0.034341 0.965080
v 0.340350 0.965659 0.965080
v 1.669276 -0.034341 0.481390
v 1.669276 0.965659 0.481390
v 0.762968 -0.034341 0.058772
v 0.762968 0.965659 0.058772
vn -0.4226 0.0000 0.9063
vn -0.9063 0.0000 -0.4226
vn 0.4226 0.0000 -0.9063
vn 0.9063 0.0000 0.4226
vn 0.0000 -1.0000 0.0000
vn 0.0000 1.0000 0.0000
usemtl Material_White
s off
f 34//17 35//17 33//17
f 36//18 39//18 35//18
f 40//19 37//19 39//19
f 38//20 33//20 37//20
f 39//21 33//21 35//21
f 36//22 38//22 40//22
f 34//17 36//17 35//17
f 36//18 40//18 39//18
f 40//19 38//19 37//19
f 38//20 34//20 33//20
f 39//21 37//21 33//21
f 36//22 34//22 38//22
o Plane.002
v -2.000000 0.000000 2.000000
v 2.000000 0.000000 2.000000
v -2.000000 0.000000 -2.000000
v 2.000000 0.000000 -2.000000
vn 0.0000 1.0000 0.0000
usemtl Material_White
s off
f 42//23 43//23 41//23
f 42//23 44//23 43//23
