# Blender v2.80 (sub 75) OBJ File: ''
# www.blender.org
mtllib untitled.mtl
o Cube.015_Cube.016
v -0.500949 3.965659 -13.258273
v -0.500949 3.865659 -14.258273
v -0.500949 3.865659 -13.258273
v -0.500949 3.965659 -14.258273
v 0.499051 3.865659 -14.258273
v 0.499051 3.965659 -14.258273
v 0.499051 3.865659 -13.258273
v 0.499051 3.965659 -13.258273
vn -1.0000 0.0000 0.0000
vn 0.0000 0.0000 -1.0000
vn 1.0000 0.0000 0.0000
vn 0.0000 0.0000 1.0000
vn 0.0000 -1.0000 0.0000
vn 0.0000 1.0000 0.0000
usemtl Material_Light
s 1
f 1//1 2//1 3//1
f 4//2 5//2 2//2
f 6//3 7//3 5//3
f 8//4 3//4 7//4
f 5//5 3//5 2//5
f 4//6 8//6 6//6
f 1//1 4//1 2//1
f 4//2 6//2 5//2
f 6//3 8//3 7//3
f 8//4 1//4 3//4
f 5//5 7//5 3//5
f 4//6 1//6 8//6
o Plane.006
v 2.000000 4.000000 -11.599283
v 2.000000 0.000000 -15.599284
v 2.000000 -0.000000 -11.599284
v 2.000000 4.000000 -15.599283
vn -1.0000 0.0000 0.0000
usemtl Material_Green
s 1
f 9//7 10//7 11//7
f 9//7 12//7 10//7
o Plane.005
v 2.000000 4.000000 -15.599283
v -2.000000 4.000000 -11.599283
v -2.000000 4.000000 -15.599283
v 2.000000 4.000000 -11.599283
vn 0.0000 -1.0000 -0.0000
usemtl Material_White
s 1
f 13//8 14//8 15//8
f 13//8 16//8 14//8
o Plane.004
v 2.000000 0.000000 -15.599284
v -2.000000 4.000000 -15.599283
v -2.000000 0.000000 -15.599284
v 2.000000 4.000000 -15.599283
vn 0.0000 -0.0000 1.0000
usemtl Material_White
s 1
f 17//9 18//9 19//9
f 17//9 20//9 18//9
o Plane.003
v -2.000000 -0.000000 -11.599284
v -2.000000 4.000000 -15.599283
v -2.000000 4.000000 -11.599283
v -2.000000 0.000000 -15.599284
vn 1.0000 0.0000 0.0000
usemtl Material_Red
s 1
f 21//10 22//10 23//10
f 21//10 24//10 22//10
o Cube.014_Cube.015
v -1.122306 1.965659 -13.459701
v -1.464326 -0.034341 -14.399394
v -1.122306 -0.034341 -13.459702
v -1.464326 1.965659 -14.399394
v -0.524633 -0.034341 -14.741414
v -0.524633 1.965659 -14.741414
v -0.182613 -0.034341 -13.801723
v -0.182613 1.965659 -13.801722
vn -0.9397 -0.0000 0.3420
vn -0.3420 0.0000 -0.9397
vn 0.9397 0.0000 -0.3420
vn 0.3420 -0.0000 0.9397
vn 0.0000 -1.0000 -0.0000
vn 0.0000 1.0000 0.0000
usemtl Material_White
s 1
f 25//11 26//11 27//11
f 28//12 29//12 26//12
f 30//13 31//13 29//13
f 32//14 27//14 31//14
f 29//15 27//15 26//15
f 28//16 32//16 30//16
f 25//11 28//11 26//11
f 28//12 30//12 29//12
f 30//13 32//13 31//13
f 32//14 25//14 27//14
f 29//15 31//15 27//15
f 28//16 25//16 32//16
o Cube.012_Cube.014
v 1.246658 0.965659 -12.211586
v 0.340350 -0.034341 -12.634204
v 1.246658 -0.034341 -12.211586
v 0.340350 0.965659 -12.634204
v 0.762968 -0.034341 -13.540512
v 0.762968 0.965659 -13.540512
v 1.669276 -0.034341 -13.117894
v 1.669276 0.965659 -13.117894
vn -0.4226 0.0000 0.9063
vn -0.9063 0.0000 -0.4226
vn 0.4226 0.0000 -0.9063
vn 0.9063 0.0000 0.4226
vn -0.0000 -1.0000 -0.0000
vn -0.0000 1.0000 0.0000
usemtl Material_White
s 1
f 33//17 34//17 35//17
f 36//18 37//18 34//18
f 38//19 39//19 37//19
f 40//20 35//20 39//20
f 37//21 35//21 34//21
f 36//22 40//22 38//22
f 33//17 36//17 34//17
f 36//18 38//18 37//18
f 38//19 40//19 39//19
f 40//20 33//20 35//20
f 37//21 39//21 35//21
f 36//22 33//22 40//22
o Plane.002
v 2.000000 -0.000000 -11.599284
v -2.000000 0.000000 -15.599284
v -2.000000 -0.000000 -11.599284
v 2.000000 0.000000 -15.599284
vn 0.0000 1.0000 0.0000
usemtl Material_White
s 1
f 41//23 42//23 43//23
f 41//23 44//23 42//23
